<?xml version="1.0" encoding="UTF-8"?>
<svg id="Layer_2" data-name="Layer 2" xmlns="http://www.w3.org/2000/svg" viewBox="0 0 310.05 109.58">
  <defs>
    <style>
      .cls-1 {
        fill: none;
        stroke: #000;
        stroke-miterlimit: 10;
      }
    </style>
  </defs>
  <path class="cls-1" d="M237.96,39.37c1.44-4.7,3.04-9.95,4.06-13.29,34.07-.02,41.48,2.1,41.48,12,0,7.78-10.77,10.01-48.2,10l2.66-8.72Z"/>
  <path class="cls-1" d="M36.5,57.08c.06-13.1.78-17.83,15.17-18.62,11.28-.62,22.27-.6,33.52-.39l23.81,70.73h36.11l16.19-53.56c4.05,11.22,19.34,53.56,19.34,53.56h36.11s8.43-27.57,11.05-36.15"/>
  <path class="cls-1" d="M.5,57.08C.5,21.08,26.31,1.04,72.64,1.08h36.11s13.63,40.49,17.29,51.35c3.56-11.78,15.69-51.93,15.69-51.93l36.02.3s15.54,43.02,19.44,53.84c3.3-10.81,16.45-53.84,16.45-53.84h4.46l42.24.45c17.23.6,41.42,2.02,47.34,21.79,1.45,4.85,1.81,9.99,1.81,15.03"/>
  <path class="cls-1" d="M.5,57.08c0,40.42,16.14,52.03,72.19,52,0-.11,0-.22,0-.22,0,0,0-32.14,0-35.78q-36.19,0-36.19-16"/>
  <path class="cls-1" d="M227.5,73.08c6.81,0,13.08-.06,18.85-.2l.15.2,26.44,35.61h36.11s-28.84-38.56-28.84-38.56c23.04-4.11,29.29-13.29,29.29-32.05"/>
</svg>