<?xml version="1.0" encoding="UTF-8"?>
<svg xmlns="http://www.w3.org/2000/svg" xmlns:xlink="http://www.w3.org/1999/xlink" viewBox="0 0 309.13 126.98">
  <defs>
    <style>
      .cls-1 {
        fill: url(#linear-gradient-2);
      }

      .cls-2 {
        fill: url(#linear-gradient);
      }

      .cls-3 {
        fill: #fff;
      }
    </style>
    <linearGradient id="linear-gradient" x1="0" y1="54.29" x2="309" y2="54.29" gradientUnits="userSpaceOnUse">
      <stop offset="0" stop-color="#960000"/>
      <stop offset=".25" stop-color="#960096"/>
      <stop offset=".5" stop-color="#000096"/>
      <stop offset=".75" stop-color="#960096"/>
      <stop offset="1" stop-color="#960000"/>
    </linearGradient>
    <linearGradient id="linear-gradient-2" x1="1.54" y1="119.75" x2="309.13" y2="119.75" gradientUnits="userSpaceOnUse">
      <stop offset="0" stop-color="#960000"/>
      <stop offset=".25" stop-color="#960096"/>
      <stop offset=".5" stop-color="#000096"/>
      <stop offset=".75" stop-color="#960096"/>
      <stop offset="1" stop-color="#960000"/>
    </linearGradient>
  </defs>
  <g id="Logo_Initials" data-name="Logo Initials">
    <path class="cls-2" d="M227,72.58c6.81,0,13.08-.06,18.85-.2l.15.2,26.44,35.61h36.11s-28.84-38.56-28.84-38.56c23.04-4.11,29.29-13.29,29.29-32.05,0-5.04-.36-10.18-1.81-15.03-5.92-19.78-30.11-21.19-47.34-21.79l-42.24-.45h-4.46s-13.15,43.02-16.45,53.84c-3.91-10.81-19.44-53.84-19.44-53.84l-36.02-.3s-12.13,40.15-15.69,51.93C121.88,41.07,108.25.58,108.25.58h-36.11C25.81.54,0,20.58,0,56.58c0,40.42,16.14,52.03,72.19,52,0-.11,0-.22,0-.22,0,0,0-32.14,0-35.78q-36.19,0-36.19-16c.06-13.1.78-17.83,15.17-18.62,11.28-.62,22.27-.6,33.52-.39,2.69,7.98,23.81,70.73,23.81,70.73h36.11l16.19-53.56c4.05,11.22,19.34,53.56,19.34,53.56h36.11s8.43-27.57,11.05-36.15"/>
  </g>
  <g id="Name">
    <g>
      <g>
        <path d="M16.81,118.85h-6.46v-2.41c0-.7-.07-1.14-.21-1.31s-.44-.26-.91-.26c-.53,0-.87.11-1.01.32-.14.21-.21.67-.21,1.37v6.45c0,.67.07,1.12.21,1.32.14.21.47.31.97.31s.8-.1.94-.31c.15-.21.22-.69.22-1.45v-1.75h6.46v.54c0,1.44-.18,2.46-.54,3.06-.36.6-1.17,1.13-2.41,1.58s-2.78.68-4.6.68-3.45-.19-4.68-.58-2.04-.91-2.44-1.59c-.4-.68-.6-1.7-.6-3.06v-4.06c0-1,.06-1.75.18-2.25.12-.5.49-.98,1.1-1.45s1.45-.83,2.53-1.09c1.08-.27,2.32-.4,3.72-.4,1.9,0,3.47.21,4.71.62s2.05.92,2.44,1.54c.39.61.58,1.57.58,2.87v1.32Z"/>
        <path d="M30.3,112.8l3.7,13.89h-6.6l-.35-2.5h-2.31l-.39,2.5h-6.68l3.3-13.89h9.34ZM26.88,121.73c-.33-1.57-.66-3.52-.98-5.83-.66,2.66-1.07,4.6-1.24,5.83h2.23Z"/>
        <path d="M41.56,112.8v11.11h3.93v2.78h-10.39v-13.89h6.46Z"/>
        <path d="M61.1,112.8l-3.29,13.89h-9.82l-3.73-13.89h6.82c.79,3.82,1.36,7.06,1.7,9.71.33-2.68.69-5.05,1.06-7.13l.45-2.58h6.82Z"/>
        <path d="M68.66,112.8v13.89h-6.46v-13.89h6.46Z"/>
        <path d="M85.68,112.8v13.89h-5.66l-3.36-6.31v6.31h-5.4v-13.89h5.4l3.62,6.25v-6.25h5.4Z"/>
        <path d="M118.15,112.8l-2.88,13.89h-8.07c-.74-2.13-1.39-4.56-1.96-7.28-.26,1.17-.86,3.59-1.8,7.28h-8.02l-2.89-13.89h6.28l.68,4.84.66,4.68c.24-2.42.83-5.6,1.79-9.53h6.71c.09.41.32,1.93.71,4.58l.71,5.28c.37-3.36.97-6.65,1.8-9.86h6.28Z"/>
        <path d="M130.29,112.8l3.7,13.89h-6.6l-.35-2.5h-2.31l-.39,2.5h-6.68l3.3-13.89h9.34ZM126.86,121.73c-.33-1.57-.66-3.52-.98-5.83-.66,2.66-1.07,4.6-1.24,5.83h2.23Z"/>
        <path d="M146.96,112.8l-4.71,8.86v5.03h-5.99v-5.03l-4.54-8.86h5.94c.93,2.71,1.45,4.53,1.57,5.47.36-1.48.96-3.31,1.8-5.47h5.94Z"/>
        <path d="M162.5,112.8v13.89h-5.67l-3.36-6.31v6.31h-5.4v-13.89h5.4l3.62,6.25v-6.25h5.4Z"/>
        <path d="M165.09,112.8h10.78v2.78h-4.31v2.63h4.04v2.64h-4.04v3.05h4.74v2.78h-11.21v-13.89Z"/>
        <path d="M183.7,112.8h4.57c3.05,0,5.12.07,6.19.2,1.08.13,1.96.47,2.64,1.01.68.54,1.02,1.4,1.02,2.59,0,1.08-.24,1.81-.72,2.18-.48.37-1.43.59-2.84.67,1.28.18,2.14.41,2.58.71.44.3.71.57.82.82.11.25.16.93.16,2.05v3.66h-6v-4.61c0-.74-.11-1.2-.31-1.38-.21-.18-.76-.27-1.65-.27v6.26h-6.46v-13.89ZM190.16,115.18v3.09c.73,0,1.24-.06,1.53-.17s.44-.47.44-1.08v-.76c0-.44-.14-.73-.42-.87-.28-.14-.8-.21-1.54-.21Z"/>
        <path d="M215.4,120.93c0,1.39-.06,2.38-.18,2.96-.12.58-.49,1.11-1.11,1.59-.62.48-1.46.85-2.51,1.11-1.05.26-2.28.39-3.68.39s-2.53-.12-3.58-.37c-1.06-.24-1.91-.61-2.56-1.09-.65-.49-1.03-1.02-1.15-1.59-.12-.57-.18-1.57-.18-3v-2.38c0-1.4.06-2.38.18-2.96.12-.58.49-1.11,1.11-1.59.62-.48,1.46-.85,2.51-1.11,1.05-.26,2.28-.39,3.68-.39,1.33,0,2.52.12,3.58.36,1.06.24,1.91.61,2.56,1.09s1.03,1.01,1.15,1.59c.12.57.18,1.57.18,3v2.38ZM208.94,116.37c0-.65-.06-1.06-.19-1.24-.13-.18-.39-.27-.79-.27-.34,0-.6.07-.78.22-.18.15-.27.58-.27,1.29v6.48c0,.81.06,1.3.18,1.49.12.19.39.28.82.28s.72-.11.84-.33c.12-.22.18-.73.18-1.55v-6.38Z"/>
        <path d="M217.81,112.8h6.45c2.04,0,3.58.09,4.63.27,1.05.18,1.9.54,2.54,1.08.65.54.97,1.41.97,2.61,0,.81-.23,1.38-.68,1.7-.46.32-1.35.57-2.69.74,1.49.19,2.51.5,3.04.94s.8,1.11.8,2.01v1.29c0,.94-.19,1.63-.58,2.08s-1,.76-1.83.93c-.84.17-2.56.25-5.16.25h-7.48v-13.89ZM224.28,115.18v3.09c.28,0,.49,0,.64,0,.63,0,1.04-.09,1.21-.26.17-.17.26-.67.26-1.5,0-.43-.07-.74-.21-.91-.14-.17-.33-.29-.56-.33-.23-.05-.68-.07-1.34-.08ZM224.28,120.43v3.88c.91-.02,1.49-.1,1.74-.24.25-.14.38-.49.38-1.05v-1.29c0-.59-.11-.96-.34-1.08-.22-.13-.82-.2-1.78-.21Z"/>
        <path d="M241.64,112.8v13.89h-6.46v-13.89h6.46Z"/>
        <path d="M258.66,112.8v13.89h-5.67l-3.36-6.31v6.31h-5.4v-13.89h5.4l3.62,6.25v-6.25h5.4Z"/>
        <path d="M274.95,117h-6v-1.03c0-.48-.08-.79-.23-.92-.15-.13-.41-.2-.77-.2-.39,0-.68.09-.88.27-.2.18-.3.45-.3.81,0,.46.11.81.34,1.05.21.24.82.52,1.83.85,2.88.95,4.69,1.74,5.44,2.35.75.61,1.12,1.6,1.12,2.96,0,.99-.21,1.72-.62,2.19-.42.47-1.22.86-2.4,1.18s-2.57.48-4.14.48c-1.73,0-3.21-.18-4.43-.55-1.22-.37-2.02-.83-2.4-1.4s-.57-1.37-.57-2.41v-.91h6v1.69c0,.52.08.86.25,1s.47.22.9.22.75-.09.96-.28c.21-.19.31-.47.31-.84,0-.82-.2-1.35-.6-1.6-.41-.25-1.42-.67-3.02-1.26-1.61-.59-2.67-1.03-3.19-1.29-.52-.27-.95-.64-1.3-1.12s-.51-1.08-.51-1.82c0-1.06.24-1.84.73-2.33.49-.49,1.27-.88,2.36-1.15s2.39-.42,3.93-.42c1.68,0,3.11.15,4.29.46,1.18.3,1.97.68,2.35,1.14s.58,1.24.58,2.35v.55Z"/>
        <path d="M292.28,120.93c0,1.39-.06,2.38-.18,2.96-.12.58-.49,1.11-1.11,1.59-.62.48-1.46.85-2.51,1.11-1.05.26-2.28.39-3.68.39s-2.53-.12-3.58-.37c-1.06-.24-1.91-.61-2.56-1.09-.65-.49-1.03-1.02-1.15-1.59-.12-.57-.18-1.57-.18-3v-2.38c0-1.4.06-2.38.18-2.96.12-.58.49-1.11,1.11-1.59.62-.48,1.46-.85,2.51-1.11,1.05-.26,2.28-.39,3.68-.39,1.33,0,2.53.12,3.58.36,1.06.24,1.91.61,2.56,1.09s1.03,1.01,1.15,1.59c.12.57.18,1.57.18,3v2.38ZM285.82,116.37c0-.65-.06-1.06-.19-1.24-.13-.18-.39-.27-.79-.27-.34,0-.6.07-.78.22-.18.15-.27.58-.27,1.29v6.48c0,.81.06,1.3.18,1.49.12.19.39.28.82.28s.72-.11.84-.33c.12-.22.18-.73.18-1.55v-6.38Z"/>
        <path d="M309.13,112.8v13.89h-5.66l-3.36-6.31v6.31h-5.4v-13.89h5.4l3.62,6.25v-6.25h5.4Z"/>
      </g>
      <g>
        <path class="cls-1" d="M16.81,118.85h-6.46v-2.41c0-.7-.07-1.14-.21-1.31s-.44-.26-.91-.26c-.53,0-.87.11-1.01.32-.14.21-.21.67-.21,1.37v6.45c0,.67.07,1.12.21,1.32.14.21.47.31.97.31s.8-.1.94-.31c.15-.21.22-.69.22-1.45v-1.75h6.46v.54c0,1.44-.18,2.46-.54,3.06-.36.6-1.17,1.13-2.41,1.58s-2.78.68-4.6.68-3.45-.19-4.68-.58-2.04-.91-2.44-1.59c-.4-.68-.6-1.7-.6-3.06v-4.06c0-1,.06-1.75.18-2.25.12-.5.49-.98,1.1-1.45s1.45-.83,2.53-1.09c1.08-.27,2.32-.4,3.72-.4,1.9,0,3.47.21,4.71.62s2.05.92,2.44,1.54c.39.61.58,1.57.58,2.87v1.32Z"/>
        <path class="cls-1" d="M30.3,112.8l3.7,13.89h-6.6l-.35-2.5h-2.31l-.39,2.5h-6.68l3.3-13.89h9.34ZM26.88,121.73c-.33-1.57-.66-3.52-.98-5.83-.66,2.66-1.07,4.6-1.24,5.83h2.23Z"/>
        <path class="cls-1" d="M41.56,112.8v11.11h3.93v2.78h-10.39v-13.89h6.46Z"/>
        <path class="cls-1" d="M61.1,112.8l-3.29,13.89h-9.82l-3.73-13.89h6.82c.79,3.82,1.36,7.06,1.7,9.71.33-2.68.69-5.05,1.06-7.13l.45-2.58h6.82Z"/>
        <path class="cls-1" d="M68.66,112.8v13.89h-6.46v-13.89h6.46Z"/>
        <path class="cls-1" d="M85.68,112.8v13.89h-5.66l-3.36-6.31v6.31h-5.4v-13.89h5.4l3.62,6.25v-6.25h5.4Z"/>
        <path class="cls-1" d="M118.15,112.8l-2.88,13.89h-8.07c-.74-2.13-1.39-4.56-1.96-7.28-.26,1.17-.86,3.59-1.8,7.28h-8.02l-2.89-13.89h6.28l.68,4.84.66,4.68c.24-2.42.83-5.6,1.79-9.53h6.71c.09.41.32,1.93.71,4.58l.71,5.28c.37-3.36.97-6.65,1.8-9.86h6.28Z"/>
        <path class="cls-1" d="M130.29,112.8l3.7,13.89h-6.6l-.35-2.5h-2.31l-.39,2.5h-6.68l3.3-13.89h9.34ZM126.86,121.73c-.33-1.57-.66-3.52-.98-5.83-.66,2.66-1.07,4.6-1.24,5.83h2.23Z"/>
        <path class="cls-1" d="M146.96,112.8l-4.71,8.86v5.03h-5.99v-5.03l-4.54-8.86h5.94c.93,2.71,1.45,4.53,1.57,5.47.36-1.48.96-3.31,1.8-5.47h5.94Z"/>
        <path class="cls-1" d="M162.5,112.8v13.89h-5.67l-3.36-6.31v6.31h-5.4v-13.89h5.4l3.62,6.25v-6.25h5.4Z"/>
        <path class="cls-1" d="M165.09,112.8h10.78v2.78h-4.31v2.63h4.04v2.64h-4.04v3.05h4.74v2.78h-11.21v-13.89Z"/>
        <path class="cls-1" d="M183.7,112.8h4.57c3.05,0,5.12.07,6.19.2,1.08.13,1.96.47,2.64,1.01.68.54,1.02,1.4,1.02,2.59,0,1.08-.24,1.81-.72,2.18-.48.37-1.43.59-2.84.67,1.28.18,2.14.41,2.58.71.44.3.71.57.82.82.11.25.16.93.16,2.05v3.66h-6v-4.61c0-.74-.11-1.2-.31-1.38-.21-.18-.76-.27-1.65-.27v6.26h-6.46v-13.89ZM190.16,115.18v3.09c.73,0,1.24-.06,1.53-.17s.44-.47.44-1.08v-.76c0-.44-.14-.73-.42-.87-.28-.14-.8-.21-1.54-.21Z"/>
        <path class="cls-1" d="M215.4,120.93c0,1.39-.06,2.38-.18,2.96-.12.58-.49,1.11-1.11,1.59-.62.48-1.46.85-2.51,1.11-1.05.26-2.28.39-3.68.39s-2.53-.12-3.58-.37c-1.06-.24-1.91-.61-2.56-1.09-.65-.49-1.03-1.02-1.15-1.59-.12-.57-.18-1.57-.18-3v-2.38c0-1.4.06-2.38.18-2.96.12-.58.49-1.11,1.11-1.59.62-.48,1.46-.85,2.51-1.11,1.05-.26,2.28-.39,3.68-.39,1.33,0,2.52.12,3.58.36,1.06.24,1.91.61,2.56,1.09s1.03,1.01,1.15,1.59c.12.57.18,1.57.18,3v2.38ZM208.94,116.37c0-.65-.06-1.06-.19-1.24-.13-.18-.39-.27-.79-.27-.34,0-.6.07-.78.22-.18.15-.27.58-.27,1.29v6.48c0,.81.06,1.3.18,1.49.12.19.39.28.82.28s.72-.11.84-.33c.12-.22.18-.73.18-1.55v-6.38Z"/>
        <path class="cls-1" d="M217.81,112.8h6.45c2.04,0,3.58.09,4.63.27,1.05.18,1.9.54,2.54,1.08.65.54.97,1.41.97,2.61,0,.81-.23,1.38-.68,1.7-.46.32-1.35.57-2.69.74,1.49.19,2.51.5,3.04.94s.8,1.11.8,2.01v1.29c0,.94-.19,1.63-.58,2.08s-1,.76-1.83.93c-.84.17-2.56.25-5.16.25h-7.48v-13.89ZM224.28,115.18v3.09c.28,0,.49,0,.64,0,.63,0,1.04-.09,1.21-.26.17-.17.26-.67.26-1.5,0-.43-.07-.74-.21-.91-.14-.17-.33-.29-.56-.33-.23-.05-.68-.07-1.34-.08ZM224.28,120.43v3.88c.91-.02,1.49-.1,1.74-.24.25-.14.38-.49.38-1.05v-1.29c0-.59-.11-.96-.34-1.08-.22-.13-.82-.2-1.78-.21Z"/>
        <path class="cls-1" d="M241.64,112.8v13.89h-6.46v-13.89h6.46Z"/>
        <path class="cls-1" d="M258.66,112.8v13.89h-5.67l-3.36-6.31v6.31h-5.4v-13.89h5.4l3.62,6.25v-6.25h5.4Z"/>
        <path class="cls-1" d="M274.95,117h-6v-1.03c0-.48-.08-.79-.23-.92-.15-.13-.41-.2-.77-.2-.39,0-.68.09-.88.27-.2.18-.3.45-.3.81,0,.46.11.81.34,1.05.21.24.82.52,1.83.85,2.88.95,4.69,1.74,5.44,2.35.75.61,1.12,1.6,1.12,2.96,0,.99-.21,1.72-.62,2.19-.42.47-1.22.86-2.4,1.18s-2.57.48-4.14.48c-1.73,0-3.21-.18-4.43-.55-1.22-.37-2.02-.83-2.4-1.4s-.57-1.37-.57-2.41v-.91h6v1.69c0,.52.08.86.25,1s.47.22.9.22.75-.09.96-.28c.21-.19.31-.47.31-.84,0-.82-.2-1.35-.6-1.6-.41-.25-1.42-.67-3.02-1.26-1.61-.59-2.67-1.03-3.19-1.29-.52-.27-.95-.64-1.3-1.12s-.51-1.08-.51-1.82c0-1.06.24-1.84.73-2.33.49-.49,1.27-.88,2.36-1.15s2.39-.42,3.93-.42c1.68,0,3.11.15,4.29.46,1.18.3,1.97.68,2.35,1.14s.58,1.24.58,2.35v.55Z"/>
        <path class="cls-1" d="M292.28,120.93c0,1.39-.06,2.38-.18,2.96-.12.58-.49,1.11-1.11,1.59-.62.48-1.46.85-2.51,1.11-1.05.26-2.28.39-3.68.39s-2.53-.12-3.58-.37c-1.06-.24-1.91-.61-2.56-1.09-.65-.49-1.03-1.02-1.15-1.59-.12-.57-.18-1.57-.18-3v-2.38c0-1.4.06-2.38.18-2.96.12-.58.49-1.11,1.11-1.59.62-.48,1.46-.85,2.51-1.11,1.05-.26,2.28-.39,3.68-.39,1.33,0,2.53.12,3.58.36,1.06.24,1.91.61,2.56,1.09s1.03,1.01,1.15,1.59c.12.57.18,1.57.18,3v2.38ZM285.82,116.37c0-.65-.06-1.06-.19-1.24-.13-.18-.39-.27-.79-.27-.34,0-.6.07-.78.22-.18.15-.27.58-.27,1.29v6.48c0,.81.06,1.3.18,1.49.12.19.39.28.82.28s.72-.11.84-.33c.12-.22.18-.73.18-1.55v-6.38Z"/>
        <path class="cls-1" d="M309.13,112.8v13.89h-5.66l-3.36-6.31v6.31h-5.4v-13.89h5.4l3.62,6.25v-6.25h5.4Z"/>
      </g>
    </g>
  </g>
  <g id="Inside_R" data-name="Inside R">
    <path class="cls-3" d="M237.46,38.87c1.44-4.7,3.04-9.95,4.06-13.29,34.07-.02,41.48,2.1,41.48,12,0,7.78-10.77,10.01-48.2,10l2.66-8.72Z"/>
  </g>
</svg>