<?xml version="1.0" encoding="UTF-8"?>
<svg xmlns="http://www.w3.org/2000/svg" xmlns:xlink="http://www.w3.org/1999/xlink" viewBox="0 0 309.13 126.98">
  <defs>
    <style>
      .cls-1 {
        fill: url(#linear-gradient);
      }

      .cls-2 {
        fill: #fff;
      }
    </style>
    <linearGradient id="linear-gradient" x1="0" y1="54.29" x2="309" y2="54.29" gradientUnits="userSpaceOnUse">
      <stop offset="0" stop-color="#960000"/>
      <stop offset=".25" stop-color="#960096"/>
      <stop offset=".5" stop-color="#000096"/>
      <stop offset=".75" stop-color="#960096"/>
      <stop offset="1" stop-color="#960000"/>
    </linearGradient>
  </defs>
  <g id="Logo_Initials" data-name="Logo Initials">
    <path class="cls-1" d="M227,72.58c6.81,0,13.08-.06,18.85-.2l.15.2,26.44,35.61h36.11s-28.84-38.56-28.84-38.56c23.04-4.11,29.29-13.29,29.29-32.05,0-5.04-.36-10.18-1.81-15.03-5.92-19.78-30.11-21.19-47.34-21.79l-42.24-.45h-4.46s-13.15,43.02-16.45,53.84c-3.91-10.81-19.44-53.84-19.44-53.84l-36.02-.3s-12.13,40.15-15.69,51.93C121.88,41.07,108.25.58,108.25.58h-36.11C25.81.54,0,20.58,0,56.58c0,40.42,16.14,52.03,72.19,52,0-.11,0-.22,0-.22,0,0,0-32.14,0-35.78q-36.19,0-36.19-16c.06-13.1.78-17.83,15.17-18.62,11.28-.62,22.27-.6,33.52-.39,2.69,7.98,23.81,70.73,23.81,70.73h36.11l16.19-53.56c4.05,11.22,19.34,53.56,19.34,53.56h36.11s8.43-27.57,11.05-36.15"/>
  </g>
  <g id="Inside_R" data-name="Inside R">
    <path class="cls-2" d="M237.46,38.87c1.44-4.7,3.04-9.95,4.06-13.29,34.07-.02,41.48,2.1,41.48,12,0,7.78-10.77,10.01-48.2,10l2.66-8.72Z"/>
  </g>
</svg>